<mxfile host="app.diagrams.net" modified="2023-02-25T16:11:04.398Z" agent="5.0 (Windows NT 10.0; Win64; x64) AppleWebKit/537.36 (KHTML, like Gecko) Chrome/110.0.0.0 Safari/537.36" etag="Gl-7PPMBCjiEOD9KmR2R" version="20.8.23" type="github">
  <diagram name="Page-1" id="uPHbSjOFx1u1XZuTdHmN">
    <mxGraphModel dx="683" dy="364" grid="1" gridSize="10" guides="1" tooltips="1" connect="1" arrows="1" fold="1" page="1" pageScale="1" pageWidth="850" pageHeight="1100" math="0" shadow="0">
      <root>
        <mxCell id="0" />
        <mxCell id="1" parent="0" />
        <mxCell id="dzYcKDgbnz6d40urpVSg-1" value="Start" style="strokeWidth=2;html=1;shape=mxgraph.flowchart.terminator;whiteSpace=wrap;fontSize=16;align=center;" vertex="1" parent="1">
          <mxGeometry x="375" y="30" width="100" height="60" as="geometry" />
        </mxCell>
        <mxCell id="dzYcKDgbnz6d40urpVSg-2" value="set n to length&lt;br&gt;of line" style="shape=parallelogram;perimeter=parallelogramPerimeter;whiteSpace=wrap;html=1;fixedSize=1;fontSize=16;align=center;" vertex="1" parent="1">
          <mxGeometry x="355" y="130" width="140" height="60" as="geometry" />
        </mxCell>
        <mxCell id="dzYcKDgbnz6d40urpVSg-3" value="Set i to 0" style="rounded=0;whiteSpace=wrap;html=1;fontSize=16;align=center;" vertex="1" parent="1">
          <mxGeometry x="365" y="240" width="120" height="60" as="geometry" />
        </mxCell>
        <mxCell id="dzYcKDgbnz6d40urpVSg-4" value="Is i equal&lt;br&gt;to n" style="strokeWidth=2;html=1;shape=mxgraph.flowchart.decision;whiteSpace=wrap;fontSize=16;align=center;" vertex="1" parent="1">
          <mxGeometry x="360" y="330" width="130" height="110" as="geometry" />
        </mxCell>
        <mxCell id="dzYcKDgbnz6d40urpVSg-5" value="Print a dash" style="rounded=0;whiteSpace=wrap;html=1;fontSize=16;align=center;" vertex="1" parent="1">
          <mxGeometry x="365" y="460" width="120" height="60" as="geometry" />
        </mxCell>
        <mxCell id="dzYcKDgbnz6d40urpVSg-6" value="Increment i by 1" style="rounded=0;whiteSpace=wrap;html=1;fontSize=16;align=center;" vertex="1" parent="1">
          <mxGeometry x="355" y="544" width="140" height="70" as="geometry" />
        </mxCell>
        <mxCell id="dzYcKDgbnz6d40urpVSg-7" value="" style="endArrow=classic;html=1;rounded=0;fontSize=16;strokeColor=default;exitX=0.53;exitY=0.998;exitDx=0;exitDy=0;exitPerimeter=0;" edge="1" parent="1" source="dzYcKDgbnz6d40urpVSg-6">
          <mxGeometry width="50" height="50" relative="1" as="geometry">
            <mxPoint x="430" y="620" as="sourcePoint" />
            <mxPoint x="359" y="384" as="targetPoint" />
            <Array as="points">
              <mxPoint x="430" y="670" />
              <mxPoint x="400" y="670" />
              <mxPoint x="370" y="670" />
              <mxPoint x="314" y="670" />
              <mxPoint x="309" y="384" />
            </Array>
          </mxGeometry>
        </mxCell>
        <mxCell id="dzYcKDgbnz6d40urpVSg-8" value="No" style="text;html=1;strokeColor=none;fillColor=none;align=center;verticalAlign=middle;whiteSpace=wrap;rounded=0;fontSize=16;" vertex="1" parent="1">
          <mxGeometry x="475" y="420" width="60" height="30" as="geometry" />
        </mxCell>
        <mxCell id="dzYcKDgbnz6d40urpVSg-9" value="Yes" style="text;html=1;strokeColor=none;fillColor=none;align=center;verticalAlign=middle;whiteSpace=wrap;rounded=0;fontSize=16;" vertex="1" parent="1">
          <mxGeometry x="500" y="310" width="60" height="30" as="geometry" />
        </mxCell>
        <mxCell id="dzYcKDgbnz6d40urpVSg-10" value="" style="endArrow=classic;html=1;rounded=0;strokeColor=default;fontSize=16;" edge="1" parent="1">
          <mxGeometry width="50" height="50" relative="1" as="geometry">
            <mxPoint x="340" y="440" as="sourcePoint" />
            <mxPoint x="390" y="390" as="targetPoint" />
          </mxGeometry>
        </mxCell>
      </root>
    </mxGraphModel>
  </diagram>
</mxfile>
